<svg width="24" height="24" viewBox="0 0 24 24" fill="none" xmlns="http://www.w3.org/2000/svg">
<path d="M1.93018 11.5792C1.93018 10.5059 2.8003 9.63574 3.87365 9.63574C4.947 9.63574 5.81712 10.5059 5.81712 11.5792V14.2426C5.81712 15.3159 4.947 16.186 3.87365 16.186C2.8003 16.186 1.93018 15.3159 1.93018 14.2426V11.5792Z" fill="#9E9E9E"/>
<path fill-rule="evenodd" clip-rule="evenodd" d="M1.25 11.5785C1.25 10.1295 2.42466 8.95483 3.87369 8.95483C5.32271 8.95483 6.49737 10.1295 6.49737 11.5785V14.2419C6.49737 15.6909 5.32271 16.8656 3.87369 16.8656C2.42466 16.8656 1.25 15.6909 1.25 14.2419V11.5785ZM3.87369 10.3153C3.17601 10.3153 2.61043 10.8808 2.61043 11.5785V14.2419C2.61043 14.9395 3.17601 15.5051 3.87369 15.5051C4.57136 15.5051 5.13694 14.9395 5.13694 14.2419V11.5785C5.13694 10.8808 4.57136 10.3153 3.87369 10.3153Z" fill="#9E9E9E"/>
<path d="M16.1828 11.5792C16.1828 10.5059 17.0529 9.63574 18.1263 9.63574C19.1996 9.63574 20.0697 10.5059 20.0697 11.5792V14.2426C20.0697 15.3159 19.1996 16.186 18.1263 16.186C17.0529 16.186 16.1828 15.3159 16.1828 14.2426V11.5792Z" fill="#9E9E9E"/>
<path fill-rule="evenodd" clip-rule="evenodd" d="M15.5026 11.5785C15.5026 10.1295 16.6773 8.95483 18.1263 8.95483C19.5753 8.95483 20.75 10.1295 20.75 11.5785V14.2419C20.75 15.6909 19.5753 16.8656 18.1263 16.8656C16.6773 16.8656 15.5026 15.6909 15.5026 14.2419V11.5785ZM18.1263 10.3153C17.4286 10.3153 16.8631 10.8808 16.8631 11.5785V14.2419C16.8631 14.9395 17.4286 15.5051 18.1263 15.5051C18.824 15.5051 19.3896 14.9395 19.3896 14.2419V11.5785C19.3896 10.8808 18.824 10.3153 18.1263 10.3153Z" fill="#9E9E9E"/>
<path fill-rule="evenodd" clip-rule="evenodd" d="M4.55458 8.32746V9.63553C4.55458 10.0112 4.25004 10.3157 3.87437 10.3157C3.4987 10.3157 3.19415 10.0112 3.19415 9.63553V8.32547H3.87437C3.19415 8.32547 3.19415 8.32592 3.19415 8.32547L3.19416 8.32359L3.19416 8.32116L3.19421 8.31468L3.1945 8.2953C3.19481 8.27959 3.19538 8.25833 3.19644 8.23188C3.19857 8.17901 3.20268 8.10528 3.21059 8.01365C3.22639 7.83063 3.2575 7.57473 3.3189 7.27C3.44119 6.66295 3.68669 5.84714 4.18298 5.026C5.20203 3.33991 7.20929 1.75 11.0004 1.75C14.7916 1.75 16.7988 3.33991 17.8179 5.026C18.3142 5.84714 18.5597 6.66295 18.682 7.27C18.7434 7.57473 18.7745 7.83063 18.7903 8.01365C18.7982 8.10528 18.8023 8.17901 18.8044 8.23188C18.8055 8.25833 18.806 8.27959 18.8064 8.2953L18.8066 8.31468L18.8067 8.32116L18.8067 8.32359L18.8067 8.3246C18.8067 8.32505 18.8067 8.32547 18.1265 8.32547L18.8067 8.3246V9.63553C18.8067 10.0112 18.5022 10.3157 18.1265 10.3157C17.7508 10.3157 17.4463 10.0112 17.4463 9.63553L17.4463 8.32621L17.4462 8.32182C17.4461 8.31522 17.4458 8.30338 17.4451 8.28665C17.4437 8.25317 17.4409 8.20024 17.4349 8.13067C17.4228 7.9913 17.3983 7.78663 17.3483 7.53868C17.2479 7.04037 17.048 6.38236 16.6536 5.72969C15.8911 4.46815 14.3354 3.11043 11.0004 3.11043C7.6655 3.11043 6.10974 4.46815 5.34727 5.72969C4.95281 6.38236 4.75292 7.04037 4.65253 7.53868C4.60258 7.78663 4.57801 7.9913 4.56598 8.13067C4.55997 8.20024 4.55712 8.25317 4.55577 8.28665C4.5551 8.30338 4.5548 8.31522 4.55467 8.32182L4.55458 8.32746ZM17.4463 8.32745C17.4463 8.32782 17.4463 8.32776 17.4463 8.32745V8.32745Z" fill="#9E9E9E"/>
<path fill-rule="evenodd" clip-rule="evenodd" d="M16.182 12.885C16.5576 12.885 16.8622 13.1896 16.8622 13.5652V13.586C16.8622 14.5527 16.8622 15.4785 16.7887 16.3069C16.7147 17.1405 16.5625 17.9329 16.2249 18.6157C15.8776 19.3179 15.3451 19.8815 14.5639 20.2576C13.8012 20.6249 12.8386 20.7957 11.6472 20.7957C11.2715 20.7957 10.967 20.4912 10.967 20.1155C10.967 19.7398 11.2715 19.4353 11.6472 19.4353C12.7231 19.4353 13.4612 19.2787 13.9738 19.0318C14.468 18.7939 14.7858 18.4567 15.0054 18.0127C15.2346 17.5491 15.3658 16.9497 15.4336 16.1866C15.5012 15.4243 15.5017 14.5561 15.5017 13.5652C15.5017 13.1896 15.8063 12.885 16.182 12.885Z" fill="#9E9E9E"/>
</svg>
