<svg width="26" height="31" viewBox="0 0 26 31" fill="none" xmlns="http://www.w3.org/2000/svg">
<g filter="url(#filter0_d_2201_4297)">
<path d="M7.41641 14.16V9.37973C7.41641 5.04922 17.6435 5.04917 17.6435 9.37978V14.16C17.6435 14.2693 17.6835 14.3744 17.756 14.4563L20.1608 17.1719C20.6722 17.7493 20.2622 18.66 19.4909 18.66H5.56904C4.79769 18.66 4.38772 17.7493 4.8991 17.1719L7.30395 14.4563C7.37641 14.3744 7.41641 14.2693 7.41641 14.16Z" fill="#9E9E9E"/>
<path fill-rule="evenodd" clip-rule="evenodd" d="M16.3755 6.35988C17.4734 6.97974 18.3147 7.98311 18.3147 9.38028V14.0753L20.6633 16.7274C21.5582 17.738 20.8408 19.3317 19.4909 19.3317H5.56908C4.21921 19.3317 3.50177 17.738 4.39669 16.7274L6.7453 14.0753V9.38023C6.7453 7.98307 7.58658 6.97972 8.68447 6.35987C9.77017 5.7469 11.1704 5.46118 12.53 5.46118C13.8896 5.46118 15.2898 5.7469 16.3755 6.35988ZM9.3444 7.52875C8.52471 7.99153 8.08761 8.61213 8.08761 9.38023V14.1605C8.08761 14.4344 7.98719 14.6976 7.80644 14.9017L5.4016 17.6173C5.27375 17.7617 5.37625 17.9894 5.56908 17.9894H19.4909C19.6838 17.9894 19.7862 17.7617 19.6584 17.6173L17.2536 14.9017L17.756 14.4568L17.2536 14.9017C17.0728 14.6976 16.9724 14.4344 16.9724 14.1605V9.38028C16.9724 8.61215 16.5353 7.99155 15.7156 7.52876C14.8837 7.05909 13.7272 6.80349 12.53 6.80349C11.3328 6.80349 10.1763 7.05909 9.3444 7.52875Z" fill="#9E9E9E"/>
<path d="M14.3198 4.78974C14.3198 5.77819 13.5185 6.57948 12.53 6.57948C11.5416 6.57948 10.7403 5.77819 10.7403 4.78974C10.7403 3.80129 11.5416 3 12.53 3C13.5185 3 14.3198 3.80129 14.3198 4.78974Z" fill="#9E9E9E"/>
<path d="M15.6617 18.6602C15.6617 19.3722 15.3317 20.055 14.7443 20.5585C14.1569 21.0619 13.3603 21.3448 12.5296 21.3448C11.699 21.3448 10.8801 21.0619 10.2927 20.5585C9.70536 20.055 9.39795 19.3722 9.39795 18.6602H12.5296H15.6617Z" fill="#14142B"/>
<path fill-rule="evenodd" clip-rule="evenodd" d="M8.72681 17.9895H16.3328V18.6607C16.3328 19.587 15.9027 20.45 15.1811 21.0685C14.4627 21.6843 13.5077 22.0164 12.5296 22.0164C11.5561 22.0164 10.5775 21.687 9.85596 21.0685C9.12344 20.4407 8.72681 19.5733 8.72681 18.6607L8.72681 17.9895ZM10.2015 19.3318C10.3101 19.5954 10.4858 19.8405 10.7295 20.0494C11.1827 20.4378 11.8418 20.6741 12.5296 20.6741C13.2129 20.6741 13.8512 20.4406 14.3075 20.0494C14.5545 19.8377 14.7352 19.5921 14.8484 19.3318H10.2015Z" fill="#9E9E9E"/>
<path fill-rule="evenodd" clip-rule="evenodd" d="M16.8763 4.44485C17.067 4.127 17.4792 4.02394 17.7971 4.21464C20.347 5.74461 20.8075 8.30063 20.8075 10.6068C20.8075 10.9775 20.5071 11.278 20.1364 11.278C19.7657 11.278 19.4652 10.9775 19.4652 10.6068C19.4652 8.43863 19.0309 6.5203 17.1065 5.36566C16.7886 5.17495 16.6856 4.76269 16.8763 4.44485Z" fill="#9E9E9E"/>
<path fill-rule="evenodd" clip-rule="evenodd" d="M8.18373 4.44485C7.99303 4.127 7.58077 4.02394 7.26292 4.21464C6.03669 4.95038 5.25961 5.83887 4.80638 6.93957C4.36375 8.01453 4.25246 9.24022 4.25246 10.6068C4.25246 10.9775 4.55295 11.278 4.92361 11.278C5.29428 11.278 5.59477 10.9775 5.59477 10.6068C5.59477 9.28878 5.7072 8.2773 6.04758 7.45066C6.37736 6.64977 6.94258 5.97223 7.95353 5.36566C8.27138 5.17495 8.37444 4.76269 8.18373 4.44485Z" fill="#9E9E9E"/>
</g>
<defs>
<filter id="filter0_d_2201_4297" x="-3" y="0" width="32" height="32" filterUnits="userSpaceOnUse" color-interpolation-filters="sRGB">
<feFlood flood-opacity="0" result="BackgroundImageFix"/>
<feColorMatrix in="SourceAlpha" type="matrix" values="0 0 0 0 0 0 0 0 0 0 0 0 0 0 0 0 0 0 127 0" result="hardAlpha"/>
<feOffset dy="4"/>
<feGaussianBlur stdDeviation="2"/>
<feComposite in2="hardAlpha" operator="out"/>
<feColorMatrix type="matrix" values="0 0 0 0 0 0 0 0 0 0 0 0 0 0 0 0 0 0 0.25 0"/>
<feBlend mode="normal" in2="BackgroundImageFix" result="effect1_dropShadow_2201_4297"/>
<feBlend mode="normal" in="SourceGraphic" in2="effect1_dropShadow_2201_4297" result="shape"/>
</filter>
</defs>
</svg>
