<svg width="24" height="24" viewBox="0 0 24 24" fill="none" xmlns="http://www.w3.org/2000/svg">
<path d="M6.41641 14.16V9.37973C6.41641 5.04922 16.6435 5.04917 16.6435 9.37978V14.16C16.6435 14.2693 16.6835 14.3744 16.756 14.4563L19.1608 17.1719C19.6722 17.7493 19.2622 18.66 18.4909 18.66H4.56904C3.79769 18.66 3.38772 17.7493 3.8991 17.1719L6.30395 14.4563C6.37641 14.3744 6.41641 14.2693 6.41641 14.16Z" fill="white"/>
<path fill-rule="evenodd" clip-rule="evenodd" d="M15.3755 6.35988C16.4734 6.97974 17.3147 7.98311 17.3147 9.38028V14.0753L19.6633 16.7274C20.5582 17.738 19.8408 19.3317 18.4909 19.3317H4.56908C3.21921 19.3317 2.50177 17.738 3.39669 16.7274L5.7453 14.0753V9.38023C5.7453 7.98307 6.58658 6.97972 7.68447 6.35987C8.77017 5.7469 10.1704 5.46118 11.53 5.46118C12.8896 5.46118 14.2898 5.7469 15.3755 6.35988ZM8.3444 7.52875C7.52471 7.99153 7.08761 8.61213 7.08761 9.38023V14.1605C7.08761 14.4344 6.98719 14.6976 6.80644 14.9017L4.4016 17.6173C4.27375 17.7617 4.37625 17.9894 4.56908 17.9894H18.4909C18.6838 17.9894 18.7862 17.7617 18.6584 17.6173L16.2536 14.9017L16.756 14.4568L16.2536 14.9017C16.0728 14.6976 15.9724 14.4344 15.9724 14.1605V9.38028C15.9724 8.61215 15.5353 7.99155 14.7156 7.52876C13.8837 7.05909 12.7272 6.80349 11.53 6.80349C10.3328 6.80349 9.17628 7.05909 8.3444 7.52875Z" fill="white"/>
<path d="M13.3198 4.78974C13.3198 5.77819 12.5185 6.57948 11.53 6.57948C10.5416 6.57948 9.7403 5.77819 9.7403 4.78974C9.7403 3.80129 10.5416 3 11.53 3C12.5185 3 13.3198 3.80129 13.3198 4.78974Z" fill="white"/>
<path d="M14.6617 18.6602C14.6617 19.3722 14.3317 20.055 13.7443 20.5585C13.1569 21.0619 12.3603 21.3448 11.5296 21.3448C10.699 21.3448 9.88011 21.0619 9.29273 20.5585C8.70536 20.055 8.39795 19.3722 8.39795 18.6602H11.5296H14.6617Z" fill="#14142B"/>
<path fill-rule="evenodd" clip-rule="evenodd" d="M7.72681 17.9895H15.3328V18.6607C15.3328 19.587 14.9027 20.45 14.1811 21.0685C13.4627 21.6843 12.5077 22.0164 11.5296 22.0164C10.5561 22.0164 9.57752 21.687 8.85596 21.0685C8.12344 20.4407 7.72681 19.5733 7.72681 18.6607L7.72681 17.9895ZM9.20154 19.3318C9.31014 19.5954 9.48581 19.8405 9.72952 20.0494C10.1827 20.4378 10.8418 20.6741 11.5296 20.6741C12.2129 20.6741 12.8512 20.4406 13.3075 20.0494C13.5545 19.8377 13.7352 19.5921 13.8484 19.3318H9.20154Z" fill="white"/>
<path fill-rule="evenodd" clip-rule="evenodd" d="M15.8763 4.44491C16.067 4.12706 16.4792 4.024 16.7971 4.2147C19.347 5.74467 19.8075 8.30069 19.8075 10.6069C19.8075 10.9775 19.5071 11.278 19.1364 11.278C18.7657 11.278 18.4652 10.9775 18.4652 10.6069C18.4652 8.4387 18.0309 6.52036 16.1065 5.36572C15.7886 5.17501 15.6856 4.76275 15.8763 4.44491Z" fill="white"/>
<path fill-rule="evenodd" clip-rule="evenodd" d="M7.18373 4.44491C6.99303 4.12706 6.58077 4.024 6.26292 4.2147C5.03669 4.95044 4.25961 5.83893 3.80638 6.93964C3.36375 8.0146 3.25246 9.24029 3.25246 10.6069C3.25246 10.9775 3.55295 11.278 3.92361 11.278C4.29428 11.278 4.59477 10.9775 4.59477 10.6069C4.59477 9.28884 4.7072 8.27736 5.04758 7.45072C5.37736 6.64983 5.94258 5.97229 6.95353 5.36572C7.27138 5.17501 7.37444 4.76275 7.18373 4.44491Z" fill="white"/>
</svg>
