<svg width="20" height="20" viewBox="0 0 20 20" fill="none" xmlns="http://www.w3.org/2000/svg">
<g clip-path="url(#clip0_2213_4358)">
<path d="M7.23076 0.769287H2.61538C1.6 0.769287 0.769226 1.60006 0.769226 2.61544V7.23083C0.769226 8.24621 1.6 9.07698 2.61538 9.07698H7.23076C8.24615 9.07698 9.07692 8.24621 9.07692 7.23083V2.61544C9.07692 1.60006 8.24615 0.769287 7.23076 0.769287ZM7.23076 10.9231H2.61538C1.6 10.9231 0.769226 11.7539 0.769226 12.7693V17.3847C0.769226 18.4001 1.6 19.2308 2.61538 19.2308H7.23076C8.24615 19.2308 9.07692 18.4001 9.07692 17.3847V12.7693C9.07692 11.7539 8.24615 10.9231 7.23076 10.9231ZM17.3846 10.9231H12.7692C11.7538 10.9231 10.9231 11.7539 10.9231 12.7693V17.3847C10.9231 18.4001 11.7538 19.2308 12.7692 19.2308H17.3846C18.4 19.2308 19.2308 18.4001 19.2308 17.3847V12.7693C19.2308 11.7539 18.4 10.9231 17.3846 10.9231Z" fill="#9E9E9E"/>
<path d="M15.0769 9.07698C17.371 9.07698 19.2308 7.21724 19.2308 4.92313C19.2308 2.62903 17.371 0.769287 15.0769 0.769287C12.7828 0.769287 10.9231 2.62903 10.9231 4.92313C10.9231 7.21724 12.7828 9.07698 15.0769 9.07698Z" fill="#E8501B"/>
</g>
<defs>
<clipPath id="clip0_2213_4358">
<rect width="20" height="20" fill="white"/>
</clipPath>
</defs>
</svg>
